<svg width="512" height="512" viewBox="0 0 512 512" fill="none" xmlns="http://www.w3.org/2000/svg">
<g clip-path="url(#clip0_1_2)">
<path d="M239.859 0.32663C200.883 2.60767 160.457 14.8601 127.274 34.2816C98.1074 51.422 70.389 76.4484 50.308 103.756C14.8207 152.049 -2.95596 211.16 0.401845 269.49C2.31118 301.62 8.0392 325.278 21.9313 357.995C22.5238 359.428 24.9599 364.381 27.3301 369.074C52.8758 419.713 93.9595 460.316 145.182 485.668C163.025 494.466 177.641 499.81 197.788 504.894C220.042 510.499 247.102 513.04 269.685 511.607C361.267 505.871 442.513 452.169 484.518 369.66C504.007 331.339 513.027 291.975 511.907 249.482C511.512 233.71 510.92 227.584 508.484 213.116C500.122 164.171 477.21 117.638 443.698 81.7274C399.322 34.0861 339.869 5.73596 273.503 0.522125C265.8 -0.0643921 248.089 -0.194763 239.859 0.32663ZM274.425 99.7802C287.329 102.061 297.14 104.929 308.53 109.817C321.829 115.422 332.824 122.265 344.017 131.78C359.819 145.206 371.406 160.065 380.097 178.053C387.537 193.368 392.277 209.987 394.187 227.454C395.108 235.47 395.108 253.849 394.253 261.539C388.064 316.871 352.445 369.465 305.04 393.318C292.531 399.575 277.651 404.463 265.537 406.222L262.245 406.679L267.973 401.334C275.281 394.622 280.68 387.518 284.959 379.111C286.803 375.461 288.185 372.398 288.054 372.267C287.988 372.137 285.223 372.789 281.997 373.636C263.627 378.654 238.082 378.719 216.816 373.831C202.068 370.443 183.435 362.491 170.794 354.149C140.179 333.881 119.11 303.38 111.209 268.056C107.325 250.525 107.522 225.889 111.802 207.12C116.016 188.35 125.892 167.951 138.467 152.049C146.038 142.468 158.548 130.737 168.753 123.633C186.727 111.185 209.376 102.387 231.3 99.324C240.584 98.0857 266.129 98.3464 274.425 99.7802Z" fill="#4285F4"/>
</g>
<defs>
<clipPath id="clip0_1_2">
<rect width="512" height="512" fill="white"/>
</clipPath>
</defs>
</svg>
